<?xml version="1.0" encoding="UTF-8"?>
<svg id="Layer_1" xmlns="http://www.w3.org/2000/svg" version="1.1" viewBox="0 0 32 32">
  <!-- Generator: Adobe Illustrator 30.3.0, SVG Export Plug-In . SVG Version: 2.1.3 Build 182)  -->
  <defs>
    <style>
      .st0 {
        fill: #89ff22;
      }

      .st1 {
        fill: #db841d;
      }
    </style>
  </defs>
  <rect class="st1" width="32" height="32" rx="7" ry="7"/>
  <path class="st0" d="M27.8,13.1c0,6.1-5.6,8.7-9.6,8.7h-2.3c-.3,0-.6.3-.6.6v5.1c0,.3-.3.6-.6.6h-7.8c-.3,0-.6-.3-.6-.6V4.6c0-.3.3-.6.6-.6h11.2c4,0,9.6,2.9,9.6,9ZM18.7,12.9c0-1.2-.7-2-1.8-2h-1c-.3,0-.6.3-.6.6v3c0,.3.3.6.6.6h1c1,0,1.8-.8,1.8-2Z"/>
</svg>